<svg xmlns="http://www.w3.org/2000/svg" viewBox="0 0 236 236"><defs><style>.cls-1{fill:#1872fb;}.cls-2{fill:#fff;}.cls-3{fill:#fc673d;}</style></defs><title>disc-hover</title><g id="Слой_2" data-name="Слой 2"><g id="Слой_1-2" data-name="Слой 1"><circle class="cls-1" cx="118" cy="118" r="118"/><path class="cls-2" d="M51.58,67.45,49.43,70,38.62,60.68,46.1,52l10.81,9.27-2.14,2.5-8.68-7.44L42.9,60Z"/><path class="cls-2" d="M54.8,56.45a5.45,5.45,0,1,1,7.49.37A5.12,5.12,0,0,1,54.8,56.45Zm5.9-5.09A2.38,2.38,0,0,0,57.28,51a2.51,2.51,0,1,0,3.42.35Z"/><path class="cls-2" d="M65.85,50.45c.5-.32.61-.71.32-1.15l-3.61-5.61,7.8-5,5.31,8.24-2.53,1.63-4-6.14-2.77,1.78L68.85,48c1.06,1.64.8,3.12-1.05,4.31l-1,.65-1.4-2.17Z"/><path class="cls-2" d="M80.23,48.69a3.6,3.6,0,0,1-2.44-2.1l2.83-1.3a1.74,1.74,0,0,0,2.43.76c1.09-.5,1.53-1.24.89-2.63l-.84-1.83a3.29,3.29,0,0,1-2.16,2.81,3.45,3.45,0,0,1-3.06.11,4.32,4.32,0,0,1-2-2.44l-2.37-5.16,2.81-1.29,2.1,4.56c.59,1.28,1.38,2,2.57,1.44s1.32-1.66.68-3l-2.06-4.47,2.83-1.3,4.2,9.13a4.35,4.35,0,0,1,.2,3.65,7,7,0,0,1-6.65,3.11Z"/><path class="cls-2" d="M92.83,36.88l-2.27.7c-2.12.65-3.67,0-4.34-2.2l-1.1-3.58L88,30.93l1,3.31a1.24,1.24,0,0,0,1.77.9l1.38-.43-1.43-4.63,2.86-.88,2.89,9.37-2.86.88Z"/><path class="cls-2" d="M101.48,36.75l.13.74-3,.5L97,28.33l3-.5,1,5.82,2.91-5.59-.15-.86,3-.5,1.64,9.67-3,.5-1-5.68Z"/><path class="cls-2" d="M117.56,28.58l-2.74.13.34,7.3-3,.14-.34-7.3L109.1,29l-.12-2.5,8.45-.4Z"/><path class="cls-2" d="M123.8,34.23a1.69,1.69,0,0,0,1.88-1l3,.21c-.45,1.82-2.26,3.21-5.08,3-3.41-.24-5.13-2.5-4.92-5.52a4.89,4.89,0,0,1,5.57-4.79c3.06.21,4.89,2.44,4.72,4.82a8.06,8.06,0,0,1-.22,1.43l-7-.49A2,2,0,0,0,123.8,34.23Zm-1.92-4.11,4.1.29a1.89,1.89,0,0,0-1.87-2.19A1.93,1.93,0,0,0,121.89,30.12Z"/><path class="cls-2" d="M141.34,31.65c-1.44-.38-2.4.56-2.75,1.88a2.23,2.23,0,0,0,1.57,3,1.67,1.67,0,0,0,2.1-.79l3,.8c-.88,2.06-2.9,3.31-5.93,2.51a5,5,0,0,1-3.77-6.35A5,5,0,0,1,142,29.09c3.21.85,4.17,3.17,3.84,5.27l-3-.8C142.92,32.68,142.58,32,141.34,31.65Z"/><path class="cls-2" d="M150.95,36.51c.45.19.9,0,1.61-.48l1.59-1.08a2.7,2.7,0,0,1,3-.3l1,.41-.92,2.24-.41-.17a1.3,1.3,0,0,0-1.4.13l-.77.54a2.2,2.2,0,0,1-1.79.34l1.9,6.24L151.43,43l-1.26-5.07-1.6,3.89-2.78-1.14,3.73-9.07,2.79,1.14-1.52,3.69Z"/><path class="cls-2" d="M158.76,45.75l-.38.65-2.61-1.5,4.89-8.5,2.61,1.5L160.34,43l5.8-2.46.44-.76,2.61,1.5-4.89,8.5-2.61-1.5,2.87-5Z"/><path class="cls-2" d="M166.7,48.53l.21.16c1.2.94,2.39.47,3.29-.68l3-3.87,6.48,5.06-4.59,5.89.71.55-2.74,3.51L171,57.52l1.3-1.67L167.35,52,166,53.67,164,52Zm9.44.87-2.28-1.78-1.44,1.84c-.81,1-1.66,1.7-2.63,1.48L173,53.43Z"/><path class="cls-2" d="M181.82,56.77c.34.35.81.37,1.67.19l1.89-.36a2.7,2.7,0,0,1,2.88.91l.75.77L187.28,60l-.31-.32a1.3,1.3,0,0,0-1.33-.43l-.92.19a2.2,2.2,0,0,1-1.78-.4l-.73,6.48-2.51-2.58.86-5.15-3,2.94-2.1-2.16,7-6.84,2.1,2.16-2.85,2.78Z"/><path class="cls-2" d="M180.68,69.55a3.61,3.61,0,0,1,1.56-2.82l1.85,2.5a1.74,1.74,0,0,0-.25,2.54c.71,1,1.53,1.25,2.76.34l1.62-1.2A3.29,3.29,0,0,1,185,69.37a3.45,3.45,0,0,1-.73-3,4.32,4.32,0,0,1,2-2.41l4.56-3.38,1.84,2.49-4,3c-1.13.84-1.66,1.76-.88,2.81s1.89,1,3.12,0l4-2.93,1.85,2.5-8.08,6a4.35,4.35,0,0,1-3.53.94,7,7,0,0,1-4.4-5.88Z"/><path class="cls-3" d="M62.77,87.94h9.89v48.41H61.24v-32h-10V96.45C60.69,96.45,62.77,93.75,62.77,87.94Z"/><path class="cls-3" d="M98.52,86.9c11.27,0,18.54,8,18.54,17.29V120.1c0,9.34-7.26,17.29-18.54,17.29s-18.4-8-18.4-17.29V104.2C80.13,94.86,87.18,86.9,98.52,86.9Zm0,9.48c-4.5,0-7.19,3.6-7.19,7.82V120.1c0,4.22,2.7,7.82,7.19,7.82s7.33-3.6,7.33-7.82V104.2C105.86,100,103,96.38,98.52,96.38Z"/><path class="cls-3" d="M124.87,105.58V96.93c0-5.26,4-9.61,10.72-9.61s10.72,4.36,10.72,9.61v8.65c0,5.26-4.15,9.61-10.72,9.61S124.87,110.83,124.87,105.58ZM135.6,93.34a3.39,3.39,0,0,0-3.32,3.6v8.65a3.33,3.33,0,1,0,6.64,0V96.93A3.39,3.39,0,0,0,135.6,93.34ZM170,87.87,142.3,140,135,136.36l27.6-52.15Zm.21,49.11c-6.71,0-10.72-4.36-10.72-9.61v-8.65c0-5.26,4-9.61,10.72-9.61s10.72,4.36,10.72,9.61v8.65C180.9,132.62,176.75,137,170.18,137Zm0-6a3.39,3.39,0,0,0,3.32-3.6v-8.65a3.33,3.33,0,1,0-6.64,0v8.65A3.39,3.39,0,0,0,170.18,131Z"/><path class="cls-2" d="M41.52,150.59l-3,1.25-1-2.45,8-3.3,1,2.45-2.93,1.21,1.23,3,2.93-1.21,1,2.45-8,3.3-1-2.45,3-1.25Z"/><path class="cls-2" d="M46.83,168.05l-1.38-2.34,1-.62a3.12,3.12,0,0,1-2.58-1.55,4.22,4.22,0,0,1,1.76-5.93,4.22,4.22,0,0,1,6,1.32,3.17,3.17,0,0,1,.1,3l1.06-.63,1.38,2.34Zm2.33-4.54a2.11,2.11,0,0,0,.84-2.91,2.21,2.21,0,1,0-.84,2.91Z"/><path class="cls-2" d="M55.58,178.94l4.78-4.3-2.07-2.3-4.78,4.3-1.77-2,6.41-5.78,5.61,6.23-6.41,5.78Z"/><path class="cls-2" d="M69.6,179.95a4.54,4.54,0,0,1-5.79,7,3.12,3.12,0,0,1-1.11-2.81l-3.28,4-2.11-1.75,8-9.64,2.11,1.75-.79,1A3.16,3.16,0,0,1,69.6,179.95Zm-4.93,1.79a2.06,2.06,0,1,0,3-.37A2.1,2.1,0,0,0,64.67,181.74Z"/><path class="cls-2" d="M72.2,191.91l-.35.57-2.26-1.38,4.5-7.36,2.26,1.38-2.71,4.43,5.16-2,.4-.66,2.26,1.38L77,195.6l-2.26-1.38,2.64-4.32Z"/><path class="cls-2" d="M84.43,197.18a1.49,1.49,0,0,0,1.85-.27L88.75,198c-.91,1.38-2.82,2-5.1,1a4.55,4.55,0,1,1,3.58-8.36c2.48,1.08,3.33,3.46,2.5,5.38a7.15,7.15,0,0,1-.61,1.12l-5.69-2.48A1.75,1.75,0,0,0,84.43,197.18Zm-.38-4,3.31,1.44a1.66,1.66,0,0,0-.9-2.37A1.7,1.7,0,0,0,84.05,193.21ZM86.95,186a1.67,1.67,0,1,1-2.21.87A1.68,1.68,0,0,1,86.95,186Zm4,1.72a1.67,1.67,0,1,1-1.34,3.07,1.67,1.67,0,1,1,1.34-3.07Z"/><path class="cls-2" d="M99.81,204l1.66-6.41-4,5.8-2-.51-.75-7L93,202.27l-2.43-.63,2.16-8.35,3.87,1,.55,6,3.39-5,3.81,1-2.16,8.36Z"/><path class="cls-2" d="M109,200.26c.43,0,.76-.21,1.23-.82l1.06-1.32a2.38,2.38,0,0,1,2.45-1l.94.09-.2,2.12-.39,0a1.14,1.14,0,0,0-1.14.47l-.51.65a1.94,1.94,0,0,1-1.42.74l3.19,4.77-3.15-.3-2.35-3.95-.36,3.69-2.64-.25.83-8.59,2.64.25-.34,3.49Z"/><path class="cls-2" d="M117.92,209.14a3.17,3.17,0,0,1-1.28-2.53l2.74-.11a1.53,1.53,0,0,0,1.72,1.44c1.06,0,1.66-.5,1.61-1.84l-.07-1.77a2.89,2.89,0,0,1-2.7,1.56,3,3,0,0,1-2.53-.94,3.8,3.8,0,0,1-.77-2.64l-.2-5,2.72-.11.18,4.42c0,1.23.46,2.08,1.6,2s1.63-.91,1.58-2.25l-.17-4.33,2.74-.11.35,8.84a3.83,3.83,0,0,1-1.06,3,6.18,6.18,0,0,1-6.46.29Z"/><path class="cls-2" d="M135,198.81c.42-.1.65-.45.9-1.17l.58-1.59a2.38,2.38,0,0,1,2-1.76l.92-.22.49,2.07-.38.09a1.15,1.15,0,0,0-.93.81l-.27.78a1.94,1.94,0,0,1-1.1,1.16l4.56,3.48-3.08.73-3.5-3,.86,3.61-2.58.61-2-8.39,2.58-.61.81,3.41Z"/><path class="cls-2" d="M145.69,191.85c2.21-.83,3.09.33,3.39,1.13a2.11,2.11,0,0,1-1.36,2.58c1.31-.44,2.44-.13,2.91,1.12.3.8.33,2.4-2.1,3.32L144,201.7l-3-8.08Zm1,2.39a.92.92,0,0,0-1.27-.57l-1.36.51.69,1.84,1.36-.51A.93.93,0,0,0,146.65,194.24Zm-.7,5,1.39-.52a1,1,0,1,0-.72-1.95l-1.41.53Z"/><path class="cls-2" d="M161.86,193.53l-2.4,1.29-.58-1.07a3.12,3.12,0,0,1-1.65,2.52,4.54,4.54,0,0,1-4.29-8,3.17,3.17,0,0,1,3,0l-.59-1.09,2.4-1.29ZM157.42,191a2.11,2.11,0,0,0-2.87-1,2.21,2.21,0,1,0,2.87,1Z"/><path class="cls-2" d="M163.84,181.35a4.54,4.54,0,0,1,5.41,7.26,3.12,3.12,0,0,1-3,.42l3.07,4.12-2.2,1.64-7.49-10,2.2-1.64.74,1A3.16,3.16,0,0,1,163.84,181.35Zm.58,5.21a2.06,2.06,0,1,0,.35-3A2.1,2.1,0,0,0,164.42,186.56Z"/><path class="cls-2" d="M174.51,175.13l-1.75,1.67,4.44,4.65-1.9,1.82-4.44-4.65-1.74,1.66-1.52-1.59,5.39-5.14Z"/><path class="cls-2" d="M181.7,175.66l.51.42-1.68,2-6.68-5.47,1.68-2,4,3.29-1.3-5.39-.6-.49,1.68-2,6.68,5.47-1.68,2-3.92-3.21Z"/><path class="cls-2" d="M183.21,159.45a4.54,4.54,0,0,1,7.76,4.67,3.12,3.12,0,0,1-2.61,1.52l4.4,2.65-1.41,2.35-10.74-6.46,1.41-2.35,1.06.64A3.16,3.16,0,0,1,183.21,159.45Zm2.52,4.6a2.06,2.06,0,1,0-.82-2.91A2.1,2.1,0,0,0,185.73,164.06Z"/><path class="cls-2" d="M187.29,152.1l2.51,1,.76-1.89a2.75,2.75,0,0,1,3.9-1.75,2.81,2.81,0,0,1,1.6,4l-1.71,4.27-8-3.21Zm3.2-8,8,3.21-1,2.53-8-3.21Zm3.17,10.53.53-1.31a1.1,1.1,0,0,0-.63-1.55,1.08,1.08,0,0,0-1.53.68l-.53,1.31Z"/></g></g></svg>