<svg xmlns="http://www.w3.org/2000/svg" width="95.4" height="95" viewBox="0 0 95.4 95"><style>.st0{fill:#086dff}</style><path class="st0" d="M91.4 51.6l-20.3 5.8-5.4-3.1 8.2-4.3c1-.5 1.6-1.5 1.6-2.6s-.6-2.1-1.6-2.6l-8.1-4.3 5.3-3.1 20.4 5.8c.3.1.5.1.8.1 1.3 0 2.5-.9 2.9-2.2.5-1.6-.5-3.2-2.1-3.7l-14.8-4.2 9.5-5.5c1.4-.8 1.9-2.7 1.1-4.1-.8-1.4-2.6-1.9-4.1-1.1L75.3 28 79 13.1c.4-1.6-.6-3.2-2.2-3.6-1.6-.4-3.2.6-3.6 2.2L68 32.2l-5.4 3.1.4-9.2c0-1.1-.5-2.2-1.5-2.7-1-.6-2.2-.5-3.1.1l-7.8 4.9v-6.1L65.8 7.6c1.2-1.1 1.2-3 .1-4.2-1.1-1.2-3-1.2-4.2-.1L50.6 14V3c0-1.6-1.3-3-3-3s-3 1.3-3 3v11l-11-10.7c-1.2-1.1-3.1-1.1-4.2.1-1.1 1.2-1.1 3.1.1 4.2l15.2 14.7v6.2l-7.8-4.9c-.9-.6-2.1-.6-3.1-.1-1 .6-1.5 1.6-1.5 2.7l.4 9.2-5.3-3.1-5.2-20.5c-.4-1.6-2-2.6-3.6-2.2-1.6.4-2.6 2-2.2 3.6l3.7 14.9-9.5-5.5c-1.4-.8-3.3-.3-4.1 1.1s-.3 3.3 1.1 4.1l9.5 5.5-14.8 4.2C.7 38-.2 39.6.2 41.2c.4 1.3 1.6 2.2 2.9 2.2.3 0 .5 0 .8-.1l20.3-5.8 5.3 3.1-8.1 4.3c-1 .5-1.6 1.5-1.6 2.6s.6 2.1 1.6 2.6l8.2 4.3-5.4 3.1-20.4-5.8c-1.6-.4-3.2.5-3.7 2.1s.5 3.2 2.1 3.7L17 61.7l-9.5 5.5c-1.4.8-1.9 2.7-1.1 4.1.6 1 1.6 1.5 2.6 1.5.5 0 1-.1 1.5-.4l9.5-5.5-3.7 14.9c-.4 1.6.6 3.2 2.2 3.6.2.1.5.1.7.1 1.3 0 2.6-.9 2.9-2.3l5.2-20.5 5.3-3.1-.4 9.2c0 1.1.5 2.1 1.5 2.7.5.3 1 .4 1.5.4.6 0 1.1-.2 1.6-.5l7.8-4.9v6.2L29.4 87.4c-1.2 1.1-1.2 3-.1 4.2.6.6 1.4.9 2.1.9.7 0 1.5-.3 2.1-.8L44.6 81v11c0 1.6 1.3 3 3 3s3-1.3 3-3V81l11 10.7c.6.6 1.3.8 2.1.8s1.6-.3 2.1-.9c1.1-1.2 1.1-3.1-.1-4.2L50.5 72.7v-6.2l7.8 4.9c.9.6 2.1.6 3.1.1 1-.6 1.5-1.6 1.5-2.7l-.4-9.2 5.4 3.1 5.2 20.5c.3 1.4 1.6 2.3 2.9 2.3.2 0 .5 0 .7-.1 1.6-.4 2.6-2 2.2-3.6l-3.7-14.9 9.5 5.5c.5.3 1 .4 1.5.4 1 0 2-.5 2.6-1.5.8-1.4.3-3.3-1.1-4.1l-9.5-5.5L93 57.5c1.6-.5 2.5-2.1 2.1-3.7-.5-1.7-2.2-2.6-3.7-2.2M66 47.4l-6.5 3.4-5.8-3.4 5.9-3.4 6.4 3.4zm-9.2-15.9l-.3 7.3-5.9 3.4v-6.8l6.2-3.9zm-18.3 0l6.2 3.9v6.8l-5.9-3.4-.3-7.3zm-9.1 15.9l6.4-3.4 5.9 3.4-5.8 3.4-6.5-3.4zm9.1 15.8l.3-7.2 5.9-3.4v6.7l-6.2 3.9zm18.3 0l-6.1-3.9v-6.8l5.9 3.4.2 7.3z"/></svg>