<svg xmlns="http://www.w3.org/2000/svg" viewBox="0 0 180 68.54"><defs><style>.cls-1{fill:#1872fb;}.cls-2{fill:#fc673d;}</style></defs><title>Ресурс 6</title><g id="Слой_2" data-name="Слой 2"><g id="Слой_1-2" data-name="Слой 1"><circle class="cls-1" cx="62.94" cy="53.69" r="6.98"/><circle class="cls-2" cx="134.92" cy="53.71" r="5.48"/><circle class="cls-2" cx="25.92" cy="53.71" r="5.48"/><path d="M5.25,23.17H.06V.77H18.14v22.4H13v-18H5.25Z"/><path d="M32,7.36c4.48,0,7.52,3.49,7.52,8.1s-3,8.1-7.52,8.1A5.58,5.58,0,0,1,27.26,21v9.18h-4.9V7.74h4.9V10A5.66,5.66,0,0,1,32,7.36Zm-4.74,8.1a3.69,3.69,0,1,0,7.36,0,3.69,3.69,0,1,0-7.36,0Z"/><path d="M47.49,22v1.18H42.75V7.74h4.74V17l6-7.9V7.74h4.74V23.17H53.47V14.11Z"/><path d="M69.66,20.06a2.66,2.66,0,0,0,2.85-1.76h4.8c-.51,2.91-3.2,5.28-7.65,5.28-5.38,0-8.32-3.36-8.32-8.13,0-4.48,2.85-8.13,8.22-8.13,4.83,0,7.94,3.3,7.94,7a12.75,12.75,0,0,1-.19,2.27H66.21C66.3,18.53,67.07,20.06,69.66,20.06ZM65.82,0a3,3,0,0,1,3,3,3,3,0,1,1-3-3Zm.38,13.82h6.46a3,3,0,0,0-3.17-3.23A3,3,0,0,0,66.21,13.82ZM73.53,0a3,3,0,0,1,3,3,3,3,0,1,1-3-3Z"/><path d="M97.76,23.17V11.33L93.41,23.17H89.73L85.28,11.33V23.17H80.8V7.74h7.14l3.62,10.08L95.2,7.74h7V23.17Z"/><path d="M111.42,14c.77,0,1.31-.51,2-1.66l1.66-2.53a4.25,4.25,0,0,1,4.19-2.24H121v3.81h-.7a2,2,0,0,0-2,1l-.8,1.25a3.46,3.46,0,0,1-2.4,1.57l6.5,7.94H116l-4.86-6.62v6.62H106.4V7.74h4.74V14Z"/><path d="M140.22,23.17h-4.86V21a5.57,5.57,0,0,1-4.74,2.56c-4.48,0-7.52-3.49-7.52-8.1s3-8.1,7.52-8.1A5.67,5.67,0,0,1,135.36,10V7.74h4.86Zm-4.86-7.71a3.77,3.77,0,0,0-3.71-3.94A3.71,3.71,0,0,0,128,15.46a3.7,3.7,0,0,0,3.65,3.94A3.75,3.75,0,0,0,135.36,15.46Z"/><path d="M4.74,55.74v5.82H0V46.14H4.74v5.66h5.73V46.14H15.2V61.57H10.46V55.74Z"/><path d="M18.3,53.86c0-4.42,3.26-8.13,8.54-8.13s8.58,3.71,8.58,8.13S32.19,62,26.85,62,18.3,58.27,18.3,53.86Zm12.25,0a3.75,3.75,0,0,0-3.71-3.94,3.94,3.94,0,1,0,3.71,3.94Z"/><path d="M47.52,46.14c4.22,0,5,2.5,5,4,0,2-1.73,3.29-3.9,3.46,2.46.1,4.16,1.31,4.16,3.71,0,1.54-1,4.22-5.6,4.22H38.53V46.14Zm.1,4.61A1.65,1.65,0,0,0,45.85,49H43.26v3.52h2.59A1.66,1.66,0,0,0,47.61,50.75Zm-4.35,8h2.66A1.86,1.86,0,1,0,46,55H43.26Z"/><path d="M54.72,53.86c0-4.42,3.26-8.13,8.54-8.13s8.58,3.71,8.58,8.13S68.61,62,63.26,62,54.72,58.27,54.72,53.86Zm12.25,0a3.75,3.75,0,0,0-3.71-3.94A3.94,3.94,0,1,0,67,53.86Z"/><path d="M82.24,49.89c-2.34,0-3.42,1.82-3.42,4s1.06,4,3.62,4a2.63,2.63,0,0,0,2.88-2h4.9c-.51,3.49-3.07,6.21-8,6.21a7.85,7.85,0,0,1-8.29-8.13,7.85,7.85,0,0,1,8.29-8.13c5.22,0,7.62,3.14,8,6.46h-4.9C85.05,50.82,84.25,49.89,82.24,49.89Z"/><path d="M104.35,50.08H100V61.57h-4.7V50.08H91V46.14h13.31Z"/><path d="M116.38,45.76c4.48,0,7.52,3.49,7.52,8.1s-3,8.09-7.52,8.09a5.58,5.58,0,0,1-4.74-2.59v9.18h-4.9V46.14h4.9v2.21A5.66,5.66,0,0,1,116.38,45.76Zm-4.74,8.1a3.69,3.69,0,1,0,3.71-3.94A3.75,3.75,0,0,0,111.65,53.86Z"/><path d="M126.08,53.86c0-4.42,3.26-8.13,8.54-8.13s8.58,3.71,8.58,8.13S140,62,134.62,62,126.08,58.27,126.08,53.86Zm12.25,0a3.75,3.75,0,0,0-3.71-3.94,3.94,3.94,0,1,0,3.71,3.94Z"/><path d="M153.6,58.46a2.66,2.66,0,0,0,2.85-1.76h4.8C160.73,59.62,158,62,153.6,62c-5.38,0-8.32-3.36-8.32-8.13,0-4.48,2.85-8.13,8.22-8.13,4.83,0,7.94,3.3,7.94,7a12.75,12.75,0,0,1-.19,2.27h-11.1C150.24,56.93,151,58.46,153.6,58.46Zm-3.46-6.24h6.46A3,3,0,0,0,153.44,49,3,3,0,0,0,150.14,52.22Z"/><path d="M169.76,52.42c.77,0,1.31-.51,2-1.66l1.66-2.53A4.25,4.25,0,0,1,177.66,46h1.7v3.81h-.7a2,2,0,0,0-2,1l-.8,1.25a3.46,3.46,0,0,1-2.4,1.57l6.5,7.94h-5.66l-4.86-6.62v6.62h-4.74V46.14h4.74v6.27Z"/></g></g></svg>