<svg xmlns="http://www.w3.org/2000/svg" viewBox="0 0 260.07 69.17"><defs><style>.cls-1{fill:#1872fb;stroke:#fc673d;stroke-miterlimit:10;stroke-width:2px;}.cls-2{fill:#fff;}</style></defs><title>Ресурс 2</title><g id="Слой_2" data-name="Слой 2"><g id="Слой_1-2" data-name="Слой 1"><path d="M85.32,23.8H80.14V1.4H98.22V23.8H93v-18H85.32Z"/><path d="M112.07,8c4.48,0,7.52,3.49,7.52,8.1s-3,8.1-7.52,8.1a5.58,5.58,0,0,1-4.74-2.59v9.18h-4.9V8.37h4.9v2.21A5.66,5.66,0,0,1,112.07,8Zm-4.74,8.1a3.69,3.69,0,1,0,7.36,0,3.69,3.69,0,1,0-7.36,0Z"/><path d="M127.56,22.61V23.8h-4.74V8.37h4.74v9.28l6-7.9V8.37h4.74V23.8h-4.74V14.74Z"/><path d="M149.74,20.69a2.66,2.66,0,0,0,2.85-1.76h4.8c-.51,2.91-3.2,5.28-7.65,5.28-5.38,0-8.32-3.36-8.32-8.13,0-4.48,2.85-8.13,8.22-8.13,4.83,0,7.94,3.3,7.94,7a12.75,12.75,0,0,1-.19,2.27h-11.1C146.38,19.16,147.15,20.69,149.74,20.69ZM145.9.63a3,3,0,1,1-3,3A3,3,0,0,1,145.9.63Zm.38,13.82h6.46a3,3,0,0,0-3.17-3.23A3,3,0,0,0,146.28,14.45ZM153.61.63a3,3,0,1,1,0,6,3,3,0,1,1,0-6Z"/><path d="M177.83,23.8V12L173.48,23.8H169.8L165.35,12V23.8h-4.48V8.37H168l3.62,10.08,3.65-10.08h7V23.8Z"/><path d="M191.5,14.65c.77,0,1.31-.51,2-1.66l1.66-2.53a4.25,4.25,0,0,1,4.19-2.24h1.7V12h-.7a2,2,0,0,0-2,1l-.8,1.25a3.46,3.46,0,0,1-2.4,1.57l6.5,7.94h-5.66l-4.86-6.62V23.8h-4.74V8.37h4.74v6.27Z"/><path d="M220.3,23.8h-4.86V21.62a5.57,5.57,0,0,1-4.74,2.56c-4.48,0-7.52-3.49-7.52-8.1s3-8.1,7.52-8.1a5.67,5.67,0,0,1,4.74,2.59V8.37h4.86Zm-4.86-7.71a3.77,3.77,0,0,0-3.71-3.94,3.71,3.71,0,0,0-3.65,3.94A3.7,3.7,0,0,0,211.72,20,3.75,3.75,0,0,0,215.43,16.09Z"/><path d="M84.81,56.37V62.2H80.08V46.77h4.74v5.66h5.73V46.77h4.74V62.2H90.54V56.37Z"/><path d="M98.38,54.49c0-4.42,3.26-8.13,8.54-8.13s8.58,3.71,8.58,8.13-3.23,8.13-8.58,8.13S98.38,58.9,98.38,54.49Zm12.25,0a3.75,3.75,0,0,0-3.71-3.94,3.94,3.94,0,1,0,3.71,3.94Z"/><path d="M127.59,46.77c4.22,0,5,2.5,5,4,0,2-1.73,3.3-3.9,3.46,2.46.1,4.16,1.31,4.16,3.71,0,1.54-1,4.22-5.6,4.22H118.6V46.77Zm.1,4.61a1.65,1.65,0,0,0-1.76-1.76h-2.59v3.52h2.59A1.66,1.66,0,0,0,127.69,51.38Zm-4.35,8H126a1.86,1.86,0,1,0,0-3.71h-2.69Z"/><path d="M134.79,54.49c0-4.42,3.26-8.13,8.54-8.13s8.58,3.71,8.58,8.13-3.23,8.13-8.58,8.13S134.79,58.9,134.79,54.49Zm12.25,0a3.75,3.75,0,0,0-3.71-3.94A3.94,3.94,0,1,0,147,54.49Z"/><path d="M162.31,50.52c-2.34,0-3.42,1.82-3.42,4s1.06,4,3.62,4a2.63,2.63,0,0,0,2.88-2h4.9c-.51,3.49-3.07,6.21-8,6.21A7.85,7.85,0,0,1,154,54.49a7.85,7.85,0,0,1,8.29-8.13c5.22,0,7.62,3.14,8,6.46h-4.9C165.13,51.45,164.33,50.52,162.31,50.52Z"/><path d="M184.43,50.71h-4.32V62.2h-4.7V50.71h-4.29V46.77h13.31Z"/><path d="M196.46,46.39c4.48,0,7.52,3.49,7.52,8.1s-3,8.1-7.52,8.1A5.58,5.58,0,0,1,191.72,60v9.18h-4.9V46.77h4.9V49A5.66,5.66,0,0,1,196.46,46.39Zm-4.74,8.1a3.69,3.69,0,1,0,3.71-3.94A3.75,3.75,0,0,0,191.72,54.49Z"/><path d="M206.15,54.49c0-4.42,3.26-8.13,8.54-8.13s8.58,3.71,8.58,8.13-3.23,8.13-8.58,8.13S206.15,58.9,206.15,54.49Zm12.25,0a3.75,3.75,0,0,0-3.71-3.94,3.94,3.94,0,1,0,3.71,3.94Z"/><path d="M233.67,59.09a2.66,2.66,0,0,0,2.85-1.76h4.8c-.51,2.91-3.2,5.28-7.65,5.28-5.38,0-8.32-3.36-8.32-8.13,0-4.48,2.85-8.13,8.22-8.13,4.83,0,7.94,3.3,7.94,7a12.75,12.75,0,0,1-.19,2.27h-11.1C230.31,57.56,231.08,59.09,233.67,59.09Zm-3.46-6.24h6.46a3,3,0,0,0-3.17-3.23A3,3,0,0,0,230.22,52.85Z"/><path d="M249.83,53c.77,0,1.31-.51,2-1.66l1.66-2.53a4.25,4.25,0,0,1,4.19-2.24h1.7v3.81h-.7a2,2,0,0,0-2,1l-.8,1.25a3.46,3.46,0,0,1-2.4,1.57l6.5,7.94h-5.66l-4.86-6.62V62.2h-4.74V46.77h4.74V53Z"/><circle class="cls-1" cx="33.5" cy="33.5" r="32.5"/><polygon class="cls-2" points="33.5 11.5 17.96 20.47 33.5 29.45 49.04 20.47 33.5 11.5"/><path class="cls-2" d="M17.58,21.12v25.4l15.54,9V30.1Zm4.58,24-3-1.75V38.56l3,1.75Zm0-6.62-3-1.75V31.94l3,1.75Zm0-6.62-3-1.75V25.32l3,1.75Zm4.76,16-3-1.76V41.31l3,1.76Zm0-6.62-3-1.76V34.69l3,1.76Zm0-6.62-3-1.76V28.07l3,1.76Zm4.77,16-3-1.76V44.06l3,1.76Zm0-6.62-3-1.76V37.44l3,1.76Zm0-6.62-3-1.76V30.82l3,1.76Z"/><path class="cls-2" d="M33.88,30.1V55.5l6.21-3.58V43.07l3-1.76v8.85l6.29-3.64V21.12Zm11,10.22,3-1.76v4.84l-3,1.75Zm0-6.63,3-1.75v4.84l-3,1.75Zm0-6.62,3-1.75v4.84l-3,1.75Zm-4.76,9.37,3-1.76v4.84l-3,1.76Zm0-6.62,3-1.76v4.84l-3,1.76Zm-4.77,16,3-1.76V48.9l-3,1.76Zm0-6.63,3-1.76v4.84l-3,1.76Zm0-6.62,3-1.76v4.84l-3,1.76Z"/><polygon class="cls-2" points="40.84 48.84 42.38 49.73 42.38 42.49 40.84 43.38 40.84 48.84"/></g></g></svg>